<?xml version="1.0" standalone="no"?>
<!DOCTYPE svg PUBLIC "-//W3C//DTD SVG 20010904//EN"
 "http://www.w3.org/TR/2001/REC-SVG-20010904/DTD/svg10.dtd">
<svg version="1.0" xmlns="http://www.w3.org/2000/svg"
 width="654.000000pt" height="654.000000pt" viewBox="0 0 654.000000 654.000000"
 preserveAspectRatio="xMidYMid meet">
<metadata>
Created by potrace 1.11, written by Peter Selinger 2001-2013
</metadata>
<g transform="translate(0.000000,654.000000) scale(0.100000,-0.100000)"
fill="#000000" stroke="none">
<path d="M3255 6529 c-11 -5 -33 -18 -50 -29 -16 -11 -41 -24 -54 -30 -13 -6
-35 -19 -50 -29 -14 -10 -46 -29 -71 -43 -25 -14 -61 -34 -80 -45 -19 -12 -78
-45 -130 -75 -52 -30 -135 -78 -184 -106 -49 -29 -91 -52 -93 -52 -3 0 -17 -8
-31 -19 -15 -10 -47 -29 -72 -43 -25 -14 -101 -58 -170 -98 -183 -106 -212
-122 -248 -141 -18 -9 -38 -22 -45 -27 -7 -5 -43 -26 -82 -47 -38 -21 -76 -42
-83 -48 -20 -16 -75 -47 -94 -53 -10 -4 -18 -11 -18 -17 0 -6 -3 -8 -6 -4 -3
3 -30 -10 -59 -29 -30 -19 -59 -34 -65 -34 -5 0 -10 -4 -10 -10 0 -5 -4 -10
-10 -10 -5 0 -48 -22 -96 -50 -48 -27 -91 -50 -95 -50 -5 0 -9 -4 -9 -10 0 -5
-4 -10 -8 -10 -5 0 -91 -48 -193 -106 -101 -58 -202 -116 -224 -129 -22 -12
-83 -47 -135 -77 -52 -30 -152 -88 -223 -129 l-127 -73 0 -1636 0 -1636 112
-64 c62 -36 135 -78 162 -93 28 -16 68 -39 88 -53 21 -13 44 -24 52 -24 8 0
16 -4 18 -8 3 -9 496 -297 507 -297 3 0 5 735 6 1633 l0 1632 30 18 c17 10 53
31 80 46 105 59 140 80 147 91 4 5 8 6 8 1 0 -5 6 -4 13 2 20 17 309 182 318
182 5 0 9 3 9 8 0 4 21 17 48 30 26 13 91 50 145 82 55 33 103 60 108 60 5 0
9 4 9 8 0 5 7 9 15 9 13 0 15 -127 15 -1084 0 -597 3 -1083 8 -1081 57 27 102
54 102 60 0 4 4 8 9 8 12 0 224 121 232 133 3 5 8 7 10 6 2 -2 47 22 99 53 98
57 132 77 260 150 41 23 83 47 92 53 9 5 34 20 55 31 51 28 90 51 203 116 322
186 508 293 525 302 11 6 78 45 148 85 125 73 166 106 148 124 -4 4 -5 26 -1
48 4 22 5 41 1 43 -3 3 -4 36 -1 75 3 39 3 78 0 86 -3 9 -3 44 0 80 3 36 3 71
0 79 -3 8 -4 156 -2 329 l3 314 47 27 c26 14 74 42 107 62 33 19 71 40 85 47
14 6 27 14 30 18 3 3 12 9 20 13 8 4 24 12 35 19 11 7 55 31 97 55 43 24 80
47 83 53 4 5 11 7 16 4 5 -4 9 -2 9 4 0 5 9 13 21 16 11 4 42 20 67 35 146 89
322 187 325 182 5 -11 2 -2171 -3 -2175 -7 -5 -425 -245 -490 -280 -30 -17
-56 -34 -58 -39 -2 -4 -8 -8 -13 -8 -7 0 -138 -73 -199 -110 -8 -5 -50 -29
-92 -52 -43 -24 -78 -46 -78 -50 0 -6 73 -52 181 -113 44 -25 249 -143 269
-155 75 -46 151 -90 154 -90 3 0 50 -27 106 -60 56 -33 106 -60 111 -60 5 0 9
-3 9 -8 0 -4 13 -13 29 -20 16 -7 40 -21 53 -31 l23 -19 0 -539 c-1 -483 1
-540 15 -532 12 7 168 96 314 179 17 10 71 41 119 69 49 28 93 51 98 51 5 0 9
5 9 10 0 6 4 10 10 10 5 0 64 32 132 71 67 40 136 80 153 89 16 10 45 26 62
36 l33 19 0 1637 0 1637 -27 14 c-69 35 -98 53 -101 60 -2 4 -7 7 -12 7 -5 0
-43 20 -84 45 -42 25 -81 45 -86 45 -6 0 -10 3 -10 8 0 4 -17 15 -37 25 -21
10 -47 23 -58 30 -11 7 -42 25 -70 41 -27 16 -93 55 -145 85 -52 31 -98 55
-102 54 -3 -1 -12 4 -18 12 -7 8 -19 15 -26 15 -8 0 -14 3 -14 8 0 4 -10 12
-23 17 -35 17 -111 59 -117 66 -3 3 -43 26 -90 52 -106 59 -168 94 -200 115
-14 9 -50 29 -80 45 -30 16 -62 36 -71 43 -8 8 -18 14 -21 14 -3 0 -56 29
-117 65 -62 36 -138 79 -169 96 -31 18 -60 37 -64 43 -4 6 -8 7 -8 3 0 -5 -12
1 -26 12 -15 12 -33 21 -40 21 -8 0 -14 5 -14 10 0 6 -6 10 -14 10 -7 0 -19 7
-26 15 -7 9 -15 13 -18 11 -2 -3 -24 8 -48 24 -23 17 -45 30 -49 30 -3 0 -22
11 -43 23 -20 13 -57 35 -82 49 -25 14 -148 85 -275 158 -126 73 -245 141
-262 152 -18 10 -50 28 -70 40 -109 62 -118 66 -138 57z"/>
<path d="M3125 2094 c-77 -45 -156 -90 -175 -101 -19 -10 -39 -22 -45 -26 -19
-15 -168 -97 -177 -97 -4 0 -8 -4 -8 -9 0 -5 -6 -11 -14 -13 -7 -2 -95 -50
-195 -108 l-181 -105 0 -545 0 -545 121 -70 c67 -38 138 -79 158 -90 44 -25
104 -60 241 -140 58 -34 125 -73 150 -87 25 -14 85 -48 133 -77 49 -28 93 -51
98 -51 5 0 9 -4 9 -9 0 -11 43 -23 50 -13 3 4 19 14 35 23 30 16 337 191 365
208 54 34 175 101 182 101 4 0 8 5 8 10 0 6 4 10 10 10 5 0 42 19 82 43 40 23
89 51 109 61 20 11 60 35 89 55 l53 36 -2 95 c0 52 0 268 0 480 1 212 0 392 0
400 0 8 -1 35 -1 60 0 50 13 38 -150 131 -25 14 -99 57 -165 95 -66 39 -127
73 -135 77 -8 4 -28 16 -45 27 -16 11 -46 28 -65 37 -19 10 -36 21 -38 26 -2
4 -7 7 -12 7 -5 0 -54 27 -110 60 -56 33 -104 60 -107 60 -3 0 -18 9 -33 20
-16 11 -44 26 -62 34 -32 13 -36 11 -173 -70z"/>
</g>
</svg>
