<svg xmlns="http://www.w3.org/2000/svg" viewBox="0 0 283.5 327.3" fill="#000">
  <polygon points="141.7,0 94.5,27.3 47.2,54.6 0,81.8 0,136.4 0,190.9 0,245.5 47.2,272.8 47.2,218.2 47.2,163.7 
    47.2,109.1 94.5,81.8 94.5,136.4 94.5,136.4 94.5,190.9 141.7,163.6 141.7,163.7 189,136.4 189,81.8 236.2,54.6 189,27.3 "/>
  <polygon points="236.2,109.1 236.2,163.7 189,190.9 236.2,218.2 236.2,272.8 283.5,245.5 283.5,190.9 283.5,136.4 
    283.5,81.8 236.2,54.6 "/>
  <polygon points="141.7,218.2 94.5,245.5 94.5,245.5 94.5,300 141.7,327.3 189,300 189,245.5 141.7,218.2 "/>
</svg>
